{
  "accessors": [
    {
      "bufferView": 2,
      "componentType": 5126,
      "count": 65532,
      "max": [
        0.30324772000312805,
        0.9483430981636047,
        0.22662194073200226
      ],
      "min": [
        -0.29094189405441284,
        -0.9507220983505249,
        -0.22835156321525574
      ],
      "type": "VEC3"
    },
    {
      "bufferView": 2,
      "byteOffset": 786384,
      "componentType": 5126,
      "count": 65532,
      "max": [
        0.9999690055847168,
        1.0,
        1.0
      ],
      "min": [
        -0.9999690055847168,
        -1.0,
        -0.9999690055847168
      ],
      "type": "VEC3"
    },
    {
      "bufferView": 3,
      "componentType": 5126,
      "count": 65532,
      "max": [
        0.999997615814209,
        0.9999977946281433,
        1.0,
        1.0
      ],
      "min": [
        -0.9999998807907104,
        -1.0,
        -0.9999685287475586,
        -1.0
      ],
      "type": "VEC4"
    },
    {
      "bufferView": 1,
      "componentType": 5126,
      "count": 65532,
      "max": [
        0.9984343647956848,
        0.9999518990516663
      ],
      "min": [
        4.125389386899769e-05,
        2.002716064453125e-05
      ],
      "type": "VEC2"
    },
    {
      "bufferView": 1,
      "byteOffset": 524256,
      "componentType": 5126,
      "count": 65532,
      "max": [
        0.9984343647956848,
        0.9999518990516663
      ],
      "min": [
        4.125389386899769e-05,
        2.002716064453125e-05
      ],
      "type": "VEC2"
    },
    {
      "bufferView": 1,
      "byteOffset": 1048512,
      "componentType": 5126,
      "count": 65532,
      "max": [
        0.9984343647956848,
        0.9999518990516663
      ],
      "min": [
        4.125389386899769e-05,
        2.002716064453125e-05
      ],
      "type": "VEC2"
    },
    {
      "bufferView": 1,
      "byteOffset": 1572768,
      "componentType": 5126,
      "count": 65532,
      "max": [
        0.9984343647956848,
        0.9999518990516663
      ],
      "min": [
        4.125389386899769e-05,
        2.002716064453125e-05
      ],
      "type": "VEC2"
    },
    {
      "bufferView": 1,
      "byteOffset": 2097024,
      "componentType": 5126,
      "count": 65532,
      "max": [
        0.9984343647956848,
        0.9999518990516663
      ],
      "min": [
        4.125389386899769e-05,
        2.002716064453125e-05
      ],
      "type": "VEC2"
    },
    {
      "bufferView": 0,
      "componentType": 5125,
      "count": 324366,
      "type": "SCALAR"
    },
    {
      "bufferView": 2,
      "byteOffset": 1572768,
      "componentType": 5126,
      "count": 49949,
      "max": [
        0.30324772000312805,
        0.9457929730415344,
        0.10467745363712311
      ],
      "min": [
        -0.3033449947834015,
        -0.9507220983505249,
        -0.22893114387989044
      ],
      "type": "VEC3"
    },
    {
      "bufferView": 2,
      "byteOffset": 2172156,
      "componentType": 5126,
      "count": 49949,
      "max": [
        0.9999690055847168,
        0.9999380111694336,
        0.9999380111694336
      ],
      "min": [
        -0.9999690055847168,
        -1.0,
        -1.0
      ],
      "type": "VEC3"
    },
    {
      "bufferView": 3,
      "byteOffset": 1048512,
      "componentType": 5126,
      "count": 49949,
      "max": [
        0.9999687671661377,
        0.9999940991401672,
        0.9999933838844299,
        1.0
      ],
      "min": [
        -0.9999088644981384,
        -0.9999959468841553,
        -0.9999718070030212,
        -1.0
      ],
      "type": "VEC4"
    },
    {
      "bufferView": 1,
      "byteOffset": 2621280,
      "componentType": 5126,
      "count": 49949,
      "max": [
        0.9938020706176758,
        0.9999518990516663
      ],
      "min": [
        4.125389386899769e-05,
        0.0031944140791893005
      ],
      "type": "VEC2"
    },
    {
      "bufferView": 1,
      "byteOffset": 3020872,
      "componentType": 5126,
      "count": 49949,
      "max": [
        0.9938020706176758,
        0.9999518990516663
      ],
      "min": [
        4.125389386899769e-05,
        0.0031944140791893005
      ],
      "type": "VEC2"
    },
    {
      "bufferView": 1,
      "byteOffset": 3420464,
      "componentType": 5126,
      "count": 49949,
      "max": [
        0.9938020706176758,
        0.9999518990516663
      ],
      "min": [
        4.125389386899769e-05,
        0.0031944140791893005
      ],
      "type": "VEC2"
    },
    {
      "bufferView": 1,
      "byteOffset": 3820056,
      "componentType": 5126,
      "count": 49949,
      "max": [
        0.9938020706176758,
        0.9999518990516663
      ],
      "min": [
        4.125389386899769e-05,
        0.0031944140791893005
      ],
      "type": "VEC2"
    },
    {
      "bufferView": 1,
      "byteOffset": 4219648,
      "componentType": 5126,
      "count": 49949,
      "max": [
        0.9938020706176758,
        0.9999518990516663
      ],
      "min": [
        4.125389386899769e-05,
        0.0031944140791893005
      ],
      "type": "VEC2"
    },
    {
      "bufferView": 0,
      "byteOffset": 1297464,
      "componentType": 5125,
      "count": 235509,
      "type": "SCALAR"
    }
  ],
  "asset": {
    "extras": {
      "author": "restore50 (https://sketchfab.com/restore50)",
      "license": "CC-BY-4.0 (http://creativecommons.org/licenses/by/4.0/)",
      "source": "https://sketchfab.com/3d-models/monochrome-casual-athlete-8e0d69d11358450db0f775c9df1e3a18",
      "title": "Monochrome Casual Athlete"
    },
    "generator": "Sketchfab-17.14.0",
    "version": "2.0"
  },
  "bufferViews": [
    {
      "buffer": 0,
      "byteLength": 2239500,
      "name": "floatBufferViews",
      "target": 34963
    },
    {
      "buffer": 0,
      "byteLength": 4619240,
      "byteOffset": 2239500,
      "byteStride": 8,
      "name": "floatBufferViews",
      "target": 34962
    },
    {
      "buffer": 0,
      "byteLength": 2771544,
      "byteOffset": 6858740,
      "byteStride": 12,
      "name": "floatBufferViews",
      "target": 34962
    },
    {
      "buffer": 0,
      "byteLength": 1847696,
      "byteOffset": 9630284,
      "byteStride": 16,
      "name": "floatBufferViews",
      "target": 34962
    }
  ],
  "buffers": [
    {
      "byteLength": 11477980,
      "uri": "scene.bin"
    }
  ],
  "images": [
    {
      "uri": "textures/material_0_baseColor.png"
    },
    {
      "uri": "textures/material_0_metallicRoughness.png"
    },
    {
      "uri": "textures/material_0_emissive.png"
    },
    {
      "uri": "textures/material_0_normal.png"
    }
  ],
  "materials": [
    {
      "doubleSided": true,
      "emissiveFactor": [
        1.0,
        1.0,
        1.0
      ],
      "emissiveTexture": {
        "index": 2,
        "texCoord": 2
      },
      "name": "material_0",
      "normalTexture": {
        "index": 3,
        "texCoord": 3
      },
      "pbrMetallicRoughness": {
        "baseColorTexture": {
          "index": 0
        },
        "metallicRoughnessTexture": {
          "index": 1,
          "texCoord": 1
        }
      }
    }
  ],
  "meshes": [
    {
      "name": "Object_0",
      "primitives": [
        {
          "attributes": {
            "NORMAL": 1,
            "POSITION": 0,
            "TANGENT": 2,
            "TEXCOORD_0": 3,
            "TEXCOORD_1": 4,
            "TEXCOORD_2": 5,
            "TEXCOORD_3": 6,
            "TEXCOORD_4": 7
          },
          "indices": 8,
          "material": 0,
          "mode": 4
        }
      ]
    },
    {
      "name": "Object_1",
      "primitives": [
        {
          "attributes": {
            "NORMAL": 10,
            "POSITION": 9,
            "TANGENT": 11,
            "TEXCOORD_0": 12,
            "TEXCOORD_1": 13,
            "TEXCOORD_2": 14,
            "TEXCOORD_3": 15,
            "TEXCOORD_4": 16
          },
          "indices": 17,
          "material": 0,
          "mode": 4
        }
      ]
    }
  ],
  "nodes": [
    {
      "children": [
        1
      ],
      "matrix": [
        1.0,
        0.0,
        0.0,
        0.0,
        0.0,
        2.220446049250313e-16,
        -1.0,
        0.0,
        0.0,
        1.0,
        2.220446049250313e-16,
        0.0,
        0.0,
        0.0,
        0.0,
        1.0
      ],
      "name": "Sketchfab_model"
    },
    {
      "children": [
        2
      ],
      "name": "root"
    },
    {
      "children": [
        3
      ],
      "matrix": [
        1.0,
        0.0,
        0.0,
        0.0,
        0.0,
        2.220446049250313e-16,
        1.0,
        0.0,
        0.0,
        -1.0,
        2.220446049250313e-16,
        0.0,
        0.0,
        0.0,
        0.0,
        1.0
      ],
      "name": "GLTF_SceneRootNode"
    },
    {
      "children": [
        4
      ],
      "name": "_1"
    },
    {
      "children": [
        5,
        6
      ],
      "name": "mesh_0_0"
    },
    {
      "mesh": 0,
      "name": "Object_5"
    },
    {
      "mesh": 1,
      "name": "Object_6"
    }
  ],
  "samplers": [
    {
      "magFilter": 9729,
      "minFilter": 9987,
      "wrapS": 10497,
      "wrapT": 10497
    }
  ],
  "scene": 0,
  "scenes": [
    {
      "name": "Sketchfab_Scene",
      "nodes": [
        0
      ]
    }
  ],
  "textures": [
    {
      "sampler": 0,
      "source": 0
    },
    {
      "sampler": 0,
      "source": 1
    },
    {
      "sampler": 0,
      "source": 2
    },
    {
      "sampler": 0,
      "source": 3
    }
  ]
}
